<?xml version="1.0" encoding="UTF-8"?>
<svg width="51px" height="60px" viewBox="0 0 51 60" version="1.1" xmlns="http://www.w3.org/2000/svg" xmlns:xlink="http://www.w3.org/1999/xlink">
    <!-- Generator: Sketch 57.1 (83088) - https://sketch.com -->
    <title>Leather_icon</title>
    <desc>Created with Sketch.</desc>
    <g id="UI" stroke="none" stroke-width="1" fill="none" fill-rule="evenodd">
        <g id="Developer_test_M" transform="translate(-56.000000, -409.000000)" fill="#C4A37B">
            <g id="USP" transform="translate(0.000000, 371.000000)">
                <path d="M81.5006002,97.96825 C81.0996002,97.96825 80.7376002,97.72925 80.5806002,97.36125 C75.9496002,86.49825 63.3626002,90.72725 62.8296002,90.91225 C62.5146002,91.02025 62.1656002,90.96725 61.9006002,90.76825 C59.1236002,88.68525 57.2196002,85.66425 56.5396002,82.26125 C56.4736002,81.93325 56.5566002,81.49725 56.7936002,81.26125 C62.9966002,75.05725 62.9966002,62.87925 56.7936002,56.67525 C56.5566002,56.43825 56.4536002,56.09925 56.5196002,55.77125 C57.2196002,52.27225 59.1236002,49.25125 61.9006002,47.16825 C62.1716002,46.96525 62.5276002,46.91225 62.8456002,47.02925 C66.3556002,48.32125 69.2326002,48.30325 71.3936002,46.97725 C74.8846002,44.83425 75.5016002,39.90325 75.5076002,39.85325 C75.5496002,39.48925 75.7886002,39.17525 76.1286002,39.04025 C79.5926002,37.65325 83.4086002,37.65325 86.8716002,39.04025 C87.2116002,39.17525 87.4506002,39.48925 87.4936002,39.85325 C87.4996002,39.90325 88.1166002,44.83425 91.6066002,46.97725 C93.7686002,48.30325 96.6456002,48.32225 100.1546,47.02925 C100.4726,46.91225 100.8286,46.96525 101.1006,47.16825 C103.8766,49.25125 105.7816,52.27225 106.4606,55.67425 C106.5276,56.00325 106.4436,56.43925 106.2076,56.67525 C100.0026,62.87925 100.0026,75.05725 106.2076,81.26125 C106.4446,81.49825 106.5456,81.83725 106.4806,82.16525 C105.7816,85.66425 103.8766,88.68525 101.1006,90.76825 C100.8336,90.96725 100.4846,91.02025 100.1706,90.91225 C99.6376002,90.72625 87.0506002,86.49725 82.4206002,97.36125 C82.2626002,97.72925 81.9016002,97.96825 81.5006002,97.96825 M68.8876002,88.00725 C73.1076002,88.00725 78.3336002,89.29025 81.5006002,94.73425 C86.7696002,85.67525 97.7416002,88.13925 100.2926,88.86225 C102.3546,87.17825 103.7986,84.86925 104.4106,82.28025 C97.8746002,75.27525 97.8746002,62.66125 104.4106,55.65725 C103.8016,53.07625 102.3646,50.77525 100.3156,49.09425 C96.4266002,50.41325 93.1426002,50.27225 90.5466002,48.67325 C87.0126002,46.49425 85.9056002,42.28825 85.6056002,40.70025 C82.9386002,39.76825 80.0626002,39.76825 77.3956002,40.70025 C77.0956002,42.28825 75.9886002,46.49425 72.4526002,48.67325 C69.8566002,50.27325 66.5736002,50.41425 62.6846002,49.09425 C60.6366002,50.77525 59.1996002,53.07625 58.5896002,55.65725 C65.1256002,62.66125 65.1256002,75.27525 58.5896002,82.28025 C59.2016002,84.86925 60.6466002,87.17825 62.7076002,88.86225 C63.7256002,88.57225 66.0856002,88.00725 68.8876002,88.00725 M81.5001002,90.82765 C81.2331002,90.82765 80.9781002,90.72165 80.7901002,90.53165 C80.2411002,89.97765 79.6451002,89.46565 79.0201002,89.00865 C78.5741002,88.68265 78.4761002,88.05765 78.8021002,87.61165 C79.1271002,87.16565 79.7531002,87.06765 80.1991002,87.39365 C80.6481002,87.72165 81.0831002,88.07465 81.5001002,88.44865 C81.9171002,88.07465 82.3521002,87.72165 82.8011002,87.39365 C83.2471002,87.06765 83.8731002,87.16565 84.1981002,87.61165 C84.5241002,88.05765 84.4261002,88.68265 83.9801002,89.00865 C83.3551002,89.46565 82.7591002,89.97765 82.2101002,90.53165 C82.0221002,90.72165 81.7671002,90.82765 81.5001002,90.82765 M75.1510002,86.92725 C75.0470002,86.92725 74.9420002,86.91025 74.8380002,86.87625 C73.6260002,86.47725 72.3230002,86.20725 70.9640002,86.07525 C70.4150002,86.02225 70.0120002,85.53325 70.0660002,84.98325 C70.1190002,84.43425 70.6090002,84.02725 71.1580002,84.08525 C72.6630002,84.23125 74.1120002,84.53125 75.4640002,84.97725 C75.9890002,85.15025 76.2740002,85.71525 76.1010002,86.24025 C75.9620002,86.66025 75.5710002,86.92725 75.1510002,86.92725 M63.5724002,86.54925 C63.2904002,86.54925 63.0184002,86.43125 62.8264002,86.21525 C62.0634002,85.36125 61.4554002,84.39025 61.0204002,83.32825 C60.8854002,82.99925 60.9354002,82.62325 61.1524002,82.34125 C61.6274002,81.72225 62.0714002,81.05925 62.4734002,80.36925 C62.7524002,79.89225 63.3644002,79.73225 63.8414002,80.00925 C64.3184002,80.28725 64.4794002,80.90125 64.2014002,81.37725 C63.8594002,81.96225 63.4894002,82.53125 63.0984002,83.07425 C63.3384002,83.56325 63.6264002,84.02325 63.9594002,84.45125 C64.6084002,84.32825 65.2674002,84.22925 65.9234002,84.15325 C66.4754002,84.08625 66.9684002,84.48325 67.0314002,85.03025 C67.0954002,85.57925 66.7014002,86.07525 66.1534002,86.13925 C65.3584002,86.23225 64.5604002,86.36225 63.7804002,86.52825 C63.7114002,86.54225 63.6414002,86.54925 63.5724002,86.54925 M65.4337002,76.98285 C65.3397002,76.98285 65.2447002,76.96785 65.1497002,76.94085 C64.6207002,76.78585 64.3177002,76.22885 64.4737002,75.69985 C64.8697002,74.35485 65.1467002,72.95085 65.2957002,71.52385 C65.3537002,70.97485 65.8367002,70.57885 66.3947002,70.63385 C66.9447002,70.69185 67.3427002,71.18385 67.2857002,71.73285 C67.1227002,73.27985 66.8227002,74.80485 66.3927002,76.26485 C66.2637002,76.70085 65.8657002,76.98285 65.4337002,76.98285 M66.2897002,67.30785 C65.7847002,67.30785 65.3507002,66.92685 65.2957002,66.41285 C65.1457002,64.98585 64.8687002,63.58085 64.4727002,62.23785 C64.3167002,61.70785 64.6197002,61.15185 65.1497002,60.99585 C65.6787002,60.83785 66.2357002,61.14185 66.3917002,61.67185 C66.8217002,63.13185 67.1227002,64.65585 67.2857002,66.20285 C67.3427002,66.75185 66.9447002,67.24485 66.3957002,67.30285 C66.3597002,67.30585 66.3247002,67.30785 66.2897002,67.30785 M63.3385002,58.06295 C62.9945002,58.06295 62.6595002,57.88595 62.4735002,57.56695 C62.0715002,56.87795 61.6275002,56.21395 61.1525002,55.59495 C60.9355002,55.31295 60.8855002,54.93695 61.0205002,54.60695 C61.4415002,53.58095 62.0255002,52.63795 62.7545002,51.80195 C63.0015002,51.52095 63.3805002,51.39895 63.7475002,51.48995 C64.5435002,51.68695 65.3265002,51.82595 66.0755002,51.90495 C66.6245002,51.96295 67.0235002,52.45595 66.9645002,53.00495 C66.9075002,53.55295 66.4215002,53.94395 65.8655002,53.89495 C65.2235002,53.82695 64.5615002,53.71895 63.8895002,53.57495 C63.5865002,53.97895 63.3215002,54.40795 63.0985002,54.86095 C63.4895002,55.40495 63.8595002,55.97395 64.2015002,56.55895 C64.4795002,57.03595 64.3185002,57.64795 63.8415002,57.92695 C63.6835002,58.01895 63.5095002,58.06295 63.3385002,58.06295 M71.5929002,53.37445 C71.1719002,53.37445 70.7809002,53.10645 70.6419002,52.68445 C70.4709002,52.15945 70.7579002,51.59545 71.2819002,51.42345 C72.6529002,50.97545 73.9019002,50.25345 74.9969002,49.27745 C75.4079002,48.90845 76.0409002,48.94545 76.4079002,49.35845 C76.7759002,49.77045 76.7399002,50.40245 76.3279002,50.77045 C75.0269002,51.93145 73.5379002,52.79045 71.9039002,53.32445 C71.8009002,53.35845 71.6959002,53.37445 71.5929002,53.37445 M78.9913002,46.47215 C78.8473002,46.47215 78.7013002,46.44115 78.5633002,46.37615 C78.0643002,46.13915 77.8513002,45.54315 78.0883002,45.04415 C78.4213002,44.34115 78.7073002,43.60215 78.9373002,42.84915 C79.0483002,42.48815 79.3523002,42.22015 79.7243002,42.15615 C80.8863002,41.95615 82.1123002,41.95615 83.2763002,42.15615 C83.6483002,42.22015 83.9523002,42.48815 84.0623002,42.84915 C84.2933002,43.60215 84.5783002,44.34015 84.9113002,45.04415 C85.1483002,45.54315 84.9353002,46.13915 84.4353002,46.37615 C83.9373002,46.61315 83.3413002,46.40015 83.1043002,45.90015 C82.8203002,45.30115 82.5683002,44.68015 82.3493002,44.04715 C81.7873002,43.99215 81.2133002,43.99215 80.6503002,44.04715 C80.4323002,44.68115 80.1793002,45.30215 79.8953002,45.90015 C79.7243002,46.26115 79.3653002,46.47215 78.9913002,46.47215 M91.4112002,53.37645 C91.3082002,53.37645 91.2042002,53.36045 91.1012002,53.32645 C89.4672002,52.79345 87.9782002,51.93445 86.6752002,50.77345 C86.2642002,50.40645 86.2272002,49.77445 86.5942002,49.36145 C86.9622002,48.94945 87.5932002,48.91345 88.0062002,49.28045 C89.1012002,50.25645 90.3512002,50.97845 91.7222002,51.42545 C92.2462002,51.59645 92.5332002,52.16145 92.3622002,52.68645 C92.2242002,53.10845 91.8322002,53.37645 91.4112002,53.37645 M99.6622002,58.06295 C99.4902002,58.06295 99.3162002,58.01895 99.1592002,57.92695 C98.6822002,57.64795 98.5202002,57.03595 98.7992002,56.55895 C99.1412002,55.97395 99.5112002,55.40495 99.9012002,54.86095 C99.6792002,54.40795 99.4142002,53.97795 99.1092002,53.57495 C98.4392002,53.71895 97.7772002,53.82695 97.1352002,53.89495 C96.5802002,53.94295 96.0932002,53.55295 96.0352002,53.00495 C95.9762002,52.45595 96.3752002,51.96295 96.9252002,51.90495 C97.6752002,51.82595 98.4582002,51.68595 99.2522002,51.48895 C99.6172002,51.39895 99.9992002,51.51995 100.2452,51.80195 C100.9742,52.63695 101.5582,53.58095 101.9792,54.60695 C102.1142,54.93695 102.0642,55.31295 101.8482,55.59495 C101.3732,56.21395 100.9292,56.87795 100.5262,57.56695 C100.3412,57.88595 100.0062,58.06295 99.6622002,58.06295 M97.5675002,76.98195 C97.1355002,76.98195 96.7365002,76.69995 96.6085002,76.26495 C96.1785002,74.80495 95.8785002,73.28095 95.7145002,71.73395 C95.6575002,71.18395 96.0555002,70.69195 96.6045002,70.63395 C97.1575002,70.57795 97.6465002,70.97495 97.7045002,71.52395 C97.8545002,72.95095 98.1315002,74.35595 98.5275002,75.69895 C98.6835002,76.22895 98.3805002,76.78495 97.8505002,76.94095 C97.7565002,76.96895 97.6615002,76.98195 97.5675002,76.98195 M96.7115002,67.30795 C96.6755002,67.30795 96.6405002,67.30595 96.6055002,67.30295 C96.0555002,67.24495 95.6575002,66.75295 95.7145002,66.20395 C95.8785002,64.65695 96.1775002,63.13195 96.6075002,61.67195 C96.7645002,61.14195 97.3235002,60.83995 97.8505002,60.99595 C98.3795002,61.15095 98.6825002,61.70695 98.5265002,62.23695 C98.1305002,63.58095 97.8535002,64.98595 97.7045002,66.41195 C97.6495002,66.92595 97.2155002,67.30795 96.7115002,67.30795 M99.4278002,86.54925 C99.3588002,86.54925 99.2888002,86.54225 99.2198002,86.52825 C98.4398002,86.36225 97.6418002,86.23225 96.8468002,86.13925 C96.2988002,86.07525 95.9058002,85.57925 95.9688002,85.03025 C96.0318002,84.48225 96.5318002,84.08525 97.0768002,84.15325 C97.7328002,84.22925 98.3918002,84.32825 99.0408002,84.45125 C99.3738002,84.02325 99.6618002,83.56325 99.9018002,83.07425 C99.5108002,82.53125 99.1408002,81.96225 98.7988002,81.37725 C98.5208002,80.90125 98.6818002,80.28725 99.1588002,80.00925 C99.6358002,79.73225 100.2478,79.89225 100.5268,80.36925 C100.9288,81.05925 101.3728,81.72225 101.8478,82.34125 C102.0648,82.62325 102.1158,82.99925 101.9798,83.32825 C101.5448,84.39025 100.9368,85.36125 100.1738,86.21525 C99.9818002,86.43125 99.7098002,86.54925 99.4278002,86.54925 M87.8526002,86.92625 C87.4316002,86.92625 87.0406002,86.65925 86.9026002,86.23925 C86.7296002,85.71425 87.0136002,85.14925 87.5396002,84.97625 C88.8906002,84.53025 90.3396002,84.23025 91.8456002,84.08425 C92.3976002,84.02825 92.8846002,84.43325 92.9376002,84.98225 C92.9916002,85.53225 92.5886002,86.02125 92.0396002,86.07425 C90.6796002,86.20625 89.3766002,86.47625 88.1646002,86.87525 C88.0616002,86.90925 87.9566002,86.92625 87.8526002,86.92625" id="Leather_icon"></path>
            </g>
        </g>
    </g>
</svg>