<?xml version="1.0" encoding="UTF-8"?>
<svg width="87px" height="26px" viewBox="0 0 87 26" version="1.1" xmlns="http://www.w3.org/2000/svg" xmlns:xlink="http://www.w3.org/1999/xlink">
    <!-- Generator: Sketch 57.1 (83088) - https://sketch.com -->
    <title>Front_logo</title>
    <desc>Created with Sketch.</desc>
    <g id="UI" stroke="none" stroke-width="1" fill="none" fill-rule="evenodd">
        <g id="Developer_test_M" transform="translate(-20.000000, -15.000000)">
            <g id="HEADER">
                <g id="Front_logo" transform="translate(20.000000, 15.000000)">
                    <path d="M31.4658899,7.9235 C32.4592618,8.37323554 33.3117824,8.99841736 34.0036833,9.78421901 C34.6881709,10.5675496 35.2095676,11.4966736 35.5505758,12.5518223 C35.8841709,13.5896736 36.054675,14.7140124 36.054675,15.9001281 C36.054675,17.0887149 35.8841709,18.2105826 35.5505758,19.2360785 C35.2070965,20.281343 34.6881709,21.2079959 34.0036833,21.9863843 C33.3117824,22.774657 32.4567907,23.3948967 31.4609477,23.8347479 C30.4651047,24.2721281 29.2987576,24.4945248 27.9940304,24.4945248 C26.7090717,24.4945248 25.5501378,24.2721281 24.5444105,23.8347479 C23.5362122,23.3948967 22.6762783,22.774657 21.9843775,21.9863843 C21.2998899,21.2079959 20.7809642,20.281343 20.4374849,19.2360785 C20.1038899,18.2105826 19.9333857,17.0887149 19.9333857,15.9001281 C19.9333857,14.7140124 20.1038899,13.5896736 20.4374849,12.5542934 C20.7784932,11.4966736 21.2998899,10.5675496 21.9843775,9.78421901 C22.6738072,8.99841736 23.5337411,8.37323554 24.5394684,7.9235 C26.5657494,7.0166157 29.4890304,7.03391322 31.4658899,7.9235 Z M8.12090887,1.52465289 C8.38284276,1.52465289 8.67937168,1.54442149 9.0154378,1.58890083 C9.36633036,1.63338017 9.67768573,1.70257025 9.94950391,1.794 C10.1700473,1.86751446 10.3262655,2.05643582 10.3618741,2.28130359 L10.3695866,2.37964463 L10.3695866,4.57395868 C10.3695866,4.7741157 10.2732147,4.96191736 10.1076527,5.07805785 C9.94456177,5.19419835 9.73452044,5.22385124 9.54177664,5.15466116 C9.37127251,5.09041322 9.17852871,5.04840496 8.96848739,5.02369421 C8.18762788,4.93473554 7.58221466,5.00145455 7.26344606,5.22632231 C7.1250659,5.32362087 7.04155131,5.56848889 7.02283485,5.92616243 L7.0188097,6.0862562 L7.0188097,7.60349587 L9.36880144,7.60349587 C9.67880895,7.60349587 9.935719,7.8301812 9.97986787,8.12945783 L9.98657003,8.22126446 L9.98657003,10.4427603 C9.98657003,10.7550143 9.75784248,11.0100863 9.4600511,11.0538825 L9.36880144,11.0605289 L7.0188097,11.0605289 L7.0188097,23.5518099 C7.0188097,23.8618174 6.79212436,24.1187275 6.49284774,24.1628763 L6.4010411,24.1695785 L3.88054524,24.1695785 C3.57053772,24.1695785 3.31362768,23.940851 3.2694788,23.6430596 L3.26277664,23.5518099 L3.26277664,11.0605289 L1.30074358,11.0605289 C0.990736071,11.0605289 0.733826024,10.8338436 0.689677152,10.534567 L0.682974989,10.4427603 L0.682974989,8.22126446 C0.682974989,7.90901052 0.911702535,7.65393846 1.20949392,7.61014233 L1.30074358,7.60349587 L3.26277664,7.60349587 L3.26277664,5.93799174 C3.26277664,4.51465289 3.69768573,3.4051405 4.55267747,2.64404959 C5.38790061,1.9002562 6.58884276,1.52465289 8.12090887,1.52465289 Z M45.8151717,7.24691983 C46.8999733,7.24691983 47.8266262,7.40259752 48.5728907,7.70653967 C49.3339816,8.02283719 49.9616345,8.47010165 50.4410229,9.03844876 C50.9154692,9.60432479 51.2515353,10.2813992 51.441808,11.0523744 C51.6221965,11.7763992 51.7111552,12.5893826 51.7111552,13.4690851 L51.7111552,13.4690851 L51.7111552,23.5510686 C51.7111552,23.8920769 51.4343948,24.1688372 51.0933866,24.1688372 L51.0933866,24.1688372 L48.5728907,24.1688372 C48.2318824,24.1688372 47.9551221,23.8920769 47.9551221,23.5510686 L47.9551221,23.5510686 L47.9551221,13.1725562 C47.9551221,12.3867545 47.7426097,11.7936967 47.3052295,11.3563165 C46.8678494,10.9189364 46.2649072,10.706424 45.459337,10.706424 C44.7773204,10.706424 44.1842626,10.8102091 43.6974609,11.0128372 C43.2279568,11.2129942 42.8301138,11.4971678 42.5162874,11.8579446 C42.1999899,12.2261347 41.9553535,12.668457 41.7922626,13.1700851 C41.6267006,13.6865397 41.540213,14.2647711 41.540213,14.892424 L41.540213,14.892424 L41.540213,23.5510686 C41.540213,23.8920769 41.2659237,24.1688372 40.9224444,24.1688372 L40.9224444,24.1688372 L38.4019485,24.1688372 C38.0609403,24.1688372 37.7841799,23.8920769 37.7841799,23.5510686 L37.7841799,23.5510686 L37.7841799,8.22052314 C37.7841799,7.87951488 38.0609403,7.60275455 38.4019485,7.60275455 L38.4019485,7.60275455 L40.7741799,7.60275455 C41.1176593,7.60275455 41.3919485,7.87951488 41.3919485,8.22052314 L41.3919485,8.22052314 L41.3919485,8.89759752 C42.5113452,7.8004405 43.9915188,7.24691983 45.8151717,7.24691983 Z M58.1846287,3.00606198 C58.4946362,3.00606198 58.7515463,3.23478953 58.7956951,3.53258091 L58.8023973,3.62383058 L58.8023973,7.60226033 L61.2388766,7.60226033 C61.5488842,7.60226033 61.8057942,7.83098788 61.8499431,8.12877926 L61.8566452,8.22002893 L61.8566452,10.4439959 C61.8566452,10.7540034 61.6279177,11.0109134 61.3301263,11.0550623 L61.2388766,11.0617645 L58.8023973,11.0617645 L58.8023973,19.9625744 C58.8023973,20.2640455 58.8295791,20.4246653 58.8542899,20.5086818 C58.9160667,20.5976405 58.9877279,20.6445909 59.1928271,20.6693017 C59.376675,20.6910471 59.6016416,20.7033036 59.8715225,20.7073364 L60.0824138,20.7088388 L61.2388766,20.7088388 C61.5488842,20.7088388 61.8057942,20.9375664 61.8499431,21.2353578 L61.8566452,21.3266074 L61.8566452,23.5505744 C61.8566452,23.8605819 61.6279177,24.1174919 61.3301263,24.1616408 L61.2388766,24.168343 L59.3114386,24.168343 C58.6220089,24.168343 58.0190667,24.1213926 57.5199097,24.0250207 C56.9565047,23.9162934 56.4820585,23.7087231 56.1163395,23.404781 C55.7333229,23.0884835 55.4565626,22.6511033 55.2835874,22.1049959 C55.143045,21.6703957 55.0668278,21.1393077 55.0499695,20.4869006 L55.0463642,20.1997975 L55.0463642,11.0617645 L53.0546783,11.0617645 C52.7446708,11.0617645 52.4877607,10.8330369 52.4436119,10.5352455 L52.4369097,10.4439959 L52.4369097,8.22002893 C52.4369097,7.91002141 52.6656372,7.65311137 52.9634286,7.60896249 L53.0546783,7.60226033 L55.0463642,7.60226033 L55.0463642,3.62383058 C55.0463642,3.31382307 55.2750918,3.05691302 55.5728832,3.01276415 L55.6641328,3.00606198 L58.1846287,3.00606198 Z M19.2733587,7.24220156 L19.5881766,7.24667273 C19.8906361,7.2555686 20.1350501,7.47863248 20.1809083,7.76634708 L20.1886477,7.86444132 L20.1886477,10.5332017 C20.1886477,10.8742099 19.9118874,11.1509702 19.5708791,11.1509702 C18.6442262,11.1509702 17.8534824,11.276995 17.2134742,11.5241025 C16.5957056,11.7662678 16.1187882,12.1023339 15.7505981,12.5545405 C15.3725237,13.0166314 15.0932923,13.5923917 14.9203171,14.2620529 C14.7614624,14.8678191 14.6715959,15.5643595 14.6491618,16.3376689 L14.6435568,16.7306562 L14.6435568,23.5508215 C14.6435568,23.860829 14.4148293,24.117739 14.1170379,24.1618879 L14.0257882,24.1685901 L11.5052923,24.1685901 C11.1952848,24.1685901 10.9383748,23.9398625 10.8942259,23.6420712 L10.8875237,23.5508215 L10.8875237,8.22027603 C10.8875237,7.91026852 11.1162513,7.65335847 11.4140427,7.6092096 L11.5052923,7.60250744 L13.8775237,7.60250744 C14.1875313,7.60250744 14.4444413,7.83123498 14.4885902,8.12902637 L14.4952923,8.22027603 L14.4952923,9.42368926 C14.9054907,8.92206116 15.3576973,8.50692066 15.84697,8.18073884 C16.6984317,7.61309776 17.747781,7.29780884 18.9654515,7.24887724 L19.2733587,7.24220156 Z M27.9940304,10.7059298 C27.4306254,10.7059298 26.8919312,10.8171281 26.3903031,11.0395248 C25.8936171,11.2594504 25.4512948,11.5856322 25.0781626,12.008186 C24.6976171,12.443095 24.393675,12.9842603 24.1762204,13.6242686 C23.9513527,14.2791033 23.8376833,15.0426653 23.8376833,15.9001281 C23.8376833,16.6525702 23.9247114,17.3312277 24.0971123,17.9261678 L24.1762204,18.1759876 L24.2745375,18.4431086 C24.4813729,18.9650168 24.7491567,19.4122308 25.0732204,19.7723017 C25.4463527,20.1874421 25.888675,20.5111529 26.3903031,20.7335496 C27.3935593,21.1734008 28.5945014,21.1734008 29.5977576,20.7335496 C30.0969147,20.5111529 30.541708,20.1874421 30.9148403,19.7723017 C31.2929147,19.352219 31.5968568,18.8135248 31.8143114,18.1759876 C32.036708,17.523624 32.1503775,16.760062 32.1503775,15.9001281 C32.1503775,15.0426653 32.036708,14.2791033 31.8143114,13.6242686 C31.5943857,12.9842603 31.2904436,12.440624 30.9098981,12.008186 C30.5367659,11.5856322 30.0944436,11.2594504 29.5977576,11.0395248 C29.0961295,10.8171281 28.5574353,10.7059298 27.9940304,10.7059298 Z" id="Fill-11" fill="#C4A37B"></path>
                    <path d="M77.6905485,0.118117355 C76.7317717,-0.24018843 75.6642676,0.249084298 75.3084328,1.20786116 L67.1860114,23.0076793 C66.8277056,23.9664562 67.3145072,25.0339603 68.2732841,25.389795 C68.4857965,25.4688694 68.7057221,25.5059355 68.9207056,25.5059355 C69.6719122,25.5059355 70.3811105,25.0463157 70.6578709,24.3000512 L78.7802923,2.50023306 C79.1385981,1.5414562 78.6493254,0.47642314 77.6905485,0.118117355" id="Fill-12" fill="#3A3A3A"></path>
                    <path d="M85.5730287,12.6304025 L81.3944419,9.13877438 C80.6061692,8.48393967 79.4422932,8.59019587 78.7825163,9.37352645 C78.1276816,10.1593281 78.2314667,11.3281463 79.0172684,11.9854521 L81.495756,14.0537413 L79.0197395,16.1220306 C78.2314667,16.7768653 78.1276816,17.9456835 78.7825163,18.7314851 C79.1507064,19.1688653 79.6770452,19.3962041 80.2083262,19.3962041 C80.6259378,19.3962041 81.0460204,19.2553529 81.3944419,18.9662372 L85.5730287,15.4746091 C85.9955824,15.1237165 86.2402188,14.6023198 86.2402188,14.0537413 C86.2402188,13.5026917 85.9955824,12.9837661 85.5730287,12.6304025" id="Fill-14" fill="#3A3A3A"></path>
                </g>
            </g>
        </g>
    </g>
</svg>