<?xml version="1.0" encoding="UTF-8"?>
<svg width="47px" height="46px" viewBox="0 0 47 46" version="1.1" xmlns="http://www.w3.org/2000/svg" xmlns:xlink="http://www.w3.org/1999/xlink">
    <!-- Generator: Sketch 57.1 (83088) - https://sketch.com -->
    <title>spring_drive_icon</title>
    <desc>Created with Sketch.</desc>
    <g id="UI" stroke="none" stroke-width="1" fill="none" fill-rule="evenodd">
        <g id="Developer_test_M" transform="translate(-58.000000, -590.000000)" fill="#C4A37B">
            <g id="USP" transform="translate(0.000000, 371.000000)">
                <path d="M72.9719287,242 C72.9719287,237.297663 76.7976746,233.47191 81.5000032,233.47191 C86.2023318,233.47191 90.0280777,237.297663 90.0280777,242 C90.0280777,246.702337 86.2023318,250.52809 81.5000032,250.52809 C76.7976746,250.52809 72.9719287,246.702337 72.9719287,242 Z M70.3876637,242 C70.3876637,248.127303 75.3727109,253.11236 81.5000032,253.11236 C87.6272955,253.11236 92.6123427,248.127303 92.6123427,242 C92.6123427,235.872697 87.6272955,230.88764 81.5000032,230.88764 C75.3727109,230.88764 70.3876637,235.872697 70.3876637,242 Z M101.915697,245.058225 L97.5364013,245.85573 C97.0712336,245.93791 96.6655039,246.295056 96.5254368,246.744719 C96.2489204,247.62182 95.9052132,248.449303 95.4741578,249.274719 C95.2575964,249.688202 95.2901581,250.223146 95.5547869,250.607685 L98.1002879,254.256674 L93.7737114,258.583258 L90.1242124,256.071348 C89.7396737,255.800517 89.2047309,255.76382 88.7891811,255.975213 C87.9549803,256.410921 87.0928695,256.769618 86.2292082,257.041483 C85.7914337,257.182584 85.4394568,257.582629 85.3562434,258.036944 L84.5582224,262.41573 L78.441784,262.41573 L77.6442798,258.036427 C77.5605496,257.582629 77.2090896,257.182584 76.7692477,257.040966 C75.8280584,256.744809 74.960779,256.391798 74.1927355,255.990202 C73.7792531,255.774157 73.2437934,255.806719 72.8602884,256.071348 L69.2102726,258.583258 L64.8992017,254.272697 L67.4462533,250.622674 C67.7165674,250.235034 67.7491291,249.693888 67.5268823,249.276787 C67.0751528,248.413124 66.726277,247.580472 66.4585472,246.729213 C66.3179632,246.279034 65.9127504,245.921888 65.4486164,245.840225 L61.0843097,245.042202 L61.0843097,238.941775 L65.4470659,238.14427 C65.9127504,238.061573 66.3179632,237.704427 66.4580303,237.255281 C66.7376478,236.366809 67.0911752,235.509865 67.5098262,234.709258 C67.7263876,234.295775 67.6938258,233.760315 67.4291971,233.376292 L64.8831792,229.727303 L69.2102726,225.400719 L72.8923333,227.928652 C73.2717034,228.187079 73.8014778,228.219124 74.2103085,228.008764 C75.0476103,227.572022 75.9092043,227.213326 76.7707982,226.942494 C77.2090896,226.801393 77.5605496,226.400831 77.6442798,225.947034 L78.441784,221.58427 L84.5582224,221.58427 L85.3562434,225.947034 C85.4394568,226.400831 85.7914337,226.801393 86.2307587,226.943011 C87.0928695,227.213843 87.9549803,227.573056 88.7907316,228.009798 C89.2036972,228.225326 89.73864,228.193281 90.1242124,227.929169 L93.7731946,225.399685 L98.099771,229.72627 L95.5708093,233.392315 C95.3061806,233.776337 95.2736188,234.311798 95.4901802,234.724764 C95.8969435,235.507281 96.2359991,236.334247 96.5249199,237.254764 C96.6655039,237.704944 97.0712336,238.06209 97.5348507,238.143753 L101.915697,238.941775 L101.915697,245.058225 Z M104.500015,237.865169 C104.504097,237.264584 104.027041,236.691393 103.436278,236.584921 L98.6884666,235.718674 L98.6367813,235.581191 C98.4848265,235.173393 98.2956583,234.754742 98.1431867,234.418787 L98.0827149,234.285438 L100.830822,230.304629 C101.164709,229.818787 101.098035,229.081753 100.682485,228.663101 L94.8363612,222.816966 C94.4140923,222.392112 93.6708577,222.325955 93.1803642,222.668629 L89.2140342,225.401236 L89.0806862,225.340247 C88.6589341,225.147461 88.2728449,224.985685 87.9022613,224.846652 L87.7647784,224.794966 L86.8985328,220.047663 C86.78896,219.472921 86.2214554,219.001551 85.6337935,219 L77.3718983,219 C76.7372028,219.034629 76.2022599,219.572157 76.099923,220.055416 L75.2347111,224.794966 L75.0977451,224.846652 C74.7250941,224.986719 74.3395217,225.147978 73.9193202,225.340247 L73.7859722,225.401236 L69.7891479,222.653124 C69.3017555,222.323888 68.5647232,222.39573 68.1486565,222.815933 L62.3009816,228.663618 C61.8854318,229.081753 61.8187578,229.818787 62.1531617,230.305146 L64.9017859,234.269416 L64.8402804,234.403281 C64.6593819,234.798157 64.4991574,235.21836 64.3627083,235.581708 L64.3115398,235.718674 L59.564245,236.584921 C58.9739989,236.691393 58.4969436,237.264584 58.5000147,237.864135 L58.5000147,246.134831 C58.5041795,246.726112 58.9812348,247.294135 59.5637281,247.398539 L64.3105061,248.264787 L64.3621914,248.400719 C64.5327529,248.846764 64.6945279,249.232337 64.855786,249.579146 L64.9183252,249.714045 L62.152128,253.680382 C61.8192746,254.165191 61.8854318,254.901708 62.3014985,255.32036 L68.1476228,261.167011 C68.568858,261.597551 69.3115757,261.66991 69.8051704,261.330337 L73.7854553,258.582742 L73.9188034,258.643213 C74.2356343,258.786899 74.6563526,258.973483 75.0972282,259.136809 L75.2347111,259.188494 L76.1009568,263.935798 C76.2063948,264.519843 76.7738994,264.996899 77.3662129,265 L85.6348272,265 C86.226107,264.995865 86.7936116,264.518809 86.8985328,263.936315 L87.7647784,259.189011 L87.9022613,259.137326 C88.2702607,258.999326 88.655833,258.837551 89.0806862,258.643213 L89.2145511,258.582225 L93.1798473,261.330854 C93.6729251,261.670944 94.415126,261.597034 94.8342938,261.169079 L100.683002,255.319843 C101.098035,254.901708 101.164709,254.165191 100.830305,253.678831 L98.082198,249.714562 L98.1437035,249.58018 C98.3302875,249.173933 98.497231,248.745461 98.6212757,248.417775 L98.672961,248.281326 L103.435245,247.399056 C104.019805,247.293618 104.496861,246.726112 104.500015,246.133798 L104.500015,237.865169 Z" id="spring_drive_icon"></path>
            </g>
        </g>
    </g>
</svg>