<?xml version="1.0" encoding="UTF-8"?>
<svg width="47px" height="48px" viewBox="0 0 47 48" version="1.1" xmlns="http://www.w3.org/2000/svg" xmlns:xlink="http://www.w3.org/1999/xlink">
    <!-- Generator: Sketch 57.1 (83088) - https://sketch.com -->
    <title>warranty_icon</title>
    <desc>Created with Sketch.</desc>
    <g id="UI" stroke="none" stroke-width="1" fill="none" fill-rule="evenodd">
        <g id="Developer_test_M" transform="translate(-217.000000, -589.000000)" fill="#C4A37B" stroke="#C4A37B" stroke-width="0.5">
            <g id="USP" transform="translate(0.000000, 371.000000)">
                <path d="M240.5,220.71533 C238.772663,220.71533 237.191986,221.607301 235.518682,222.55159 C234.697039,223.015587 233.847093,223.495022 232.983425,223.852668 C232.082019,224.227468 231.116288,224.502778 230.182291,224.769512 C228.345173,225.293545 226.610117,225.788418 225.449696,226.949696 C224.288418,228.110117 223.793545,229.846031 223.269512,231.682291 C223.002778,232.616288 222.72661,233.582019 222.352668,234.484282 C221.995022,235.347951 221.515587,236.197039 221.052448,237.018682 C220.107301,238.691986 219.21533,240.273521 219.21533,242 C219.21533,243.727337 220.107301,245.308871 221.05159,246.982175 C221.515587,247.803818 221.994164,248.652907 222.352668,249.516575 C222.72661,250.418839 223.00192,251.384569 223.268654,252.317709 C223.793545,254.154827 224.288418,255.889883 225.449696,257.050304 C226.610117,258.211582 228.346031,258.707313 230.183149,259.231346 C231.116288,259.49808 232.082019,259.77339 232.983425,260.14819 C233.847093,260.505836 234.696182,260.985271 235.517825,261.44841 C237.191986,262.392699 238.772663,263.28467 240.5,263.28467 C242.227337,263.28467 243.808014,262.392699 245.482175,261.44841 C246.303818,260.985271 247.152907,260.505836 248.016575,260.14819 C248.917981,259.774248 249.883712,259.49808 250.817709,259.231346 C252.654827,258.707313 254.389026,258.211582 255.550304,257.051162 C256.710725,255.890741 257.206455,254.154827 257.730488,252.318567 C257.996364,251.384569 258.27339,250.418839 258.647332,249.516575 C259.004978,248.652907 259.485271,247.803818 259.94841,246.982175 C260.892699,245.308871 261.78467,243.728195 261.78467,242 C261.78467,240.273521 260.892699,238.691986 259.94841,237.018682 C259.485271,236.197039 259.005836,235.347951 258.647332,234.484282 C258.274248,233.582019 257.99808,232.616288 257.731346,231.682291 C257.206455,229.846031 256.710725,228.110117 255.550304,226.949696 C254.389883,225.788418 252.654827,225.293545 250.817709,224.769512 C249.883712,224.502778 248.917981,224.227468 248.016575,223.852668 C247.152907,223.495022 246.302961,223.015587 245.481318,222.55159 C243.807156,221.607301 242.227337,220.71533 240.5,220.71533 M240.5,265 C238.321531,265 236.468117,263.953649 234.67474,262.942462 C233.862531,262.483611 233.094921,262.05049 232.327311,261.732297 C231.51596,261.396092 230.639426,261.146512 229.711433,260.880635 C227.744807,260.319723 225.711284,259.739083 224.236958,258.263042 C222.760917,256.788716 222.181135,254.754335 221.619365,252.788567 C221.354346,251.860574 221.103908,250.984898 220.767703,250.173547 C220.44951,249.405937 220.016389,248.638326 219.557538,247.824402 C218.546351,246.03274 217.5,244.177611 217.5,242 C217.5,239.822389 218.546351,237.968117 219.558396,236.17474 C220.017247,235.362531 220.450367,234.594921 220.768561,233.827311 C221.104766,233.01596 221.355204,232.139426 221.619365,231.211433 C222.181135,229.244807 222.760917,227.212142 224.236958,225.7361 C225.712142,224.261774 227.744807,223.681135 229.711433,223.120222 C230.639426,222.854346 231.51596,222.604766 232.327311,222.268561 C233.094921,221.94951 233.862531,221.517247 234.675598,221.057538 C236.468117,220.046351 238.322389,219 240.5,219 C242.677611,219 244.531883,220.046351 246.323545,221.057538 C247.136611,221.517247 247.905937,221.94951 248.672689,222.268561 C249.484898,222.604766 250.361431,222.854346 251.289425,223.120222 C253.255193,223.681135 255.288716,224.261774 256.7639,225.7361 C258.239083,227.212142 258.818865,229.244807 259.381493,231.211433 C259.645654,232.139426 259.896092,233.01596 260.232297,233.827311 C260.55049,234.594921 260.983611,235.362531 261.442462,236.175598 C262.454506,237.968117 263.5,239.822389 263.5,242 C263.5,244.177611 262.454506,246.03274 261.442462,247.82526 C260.982753,248.638326 260.55049,249.405937 260.232297,250.173547 C259.895234,250.984898 259.644796,251.860574 259.380635,252.788567 C258.818865,254.755193 258.239083,256.788716 256.7639,258.2639 C255.287858,259.739083 253.255193,260.319723 251.288567,260.880635 C250.360574,261.146512 249.484898,261.396092 248.672689,261.732297 C247.905937,262.05049 247.137469,262.483611 246.32526,262.942462 C244.531883,263.953649 242.678469,265 240.5,265 M240.5,230.129575 C239.637189,230.129575 238.863575,230.65275 238.431312,231.529284 L235.987825,236.481441 C235.926073,236.582645 235.678208,236.761897 235.552131,236.791916 L230.09824,237.58354 C229.130794,237.724197 228.39406,238.297975 228.127326,239.11876 C227.860592,239.939546 228.119607,240.836663 228.819462,241.518507 L232.773297,245.372853 C232.851344,245.463766 232.945687,245.753656 232.934538,245.883164 L232.002256,251.315613 C231.870176,252.084081 232.040851,252.795085 232.482548,253.318261 C232.884793,253.795122 233.481728,254.068718 234.120688,254.068718 C234.530652,254.068718 234.944047,253.960652 235.349722,253.747093 L240.237555,251.177529 C240.25042,251.172383 240.350766,251.14408 240.5,251.14408 C240.649234,251.14408 240.74958,251.172383 240.77188,251.181818 L245.650278,253.747093 C246.056811,253.960652 246.469348,254.068718 246.879312,254.068718 C247.51913,254.068718 248.116064,253.795122 248.517452,253.318261 C248.958291,252.795085 249.129824,252.084081 248.997744,251.315613 L248.063747,245.872872 C248.054313,245.754514 248.148656,245.463766 248.234422,245.365992 L252.180538,241.518507 C252.881251,240.836663 253.13855,239.939546 252.872674,239.11876 C252.60594,238.297975 251.869206,237.724197 250.902618,237.58354 L245.437577,236.7902 C245.321792,236.762755 245.074785,236.582645 245.007887,236.472007 L242.568688,231.529284 C242.135567,230.65275 241.362811,230.129575 240.5,230.129575 M240.5,231.844904 C240.692117,231.844904 240.884234,231.992423 241.030895,232.288317 L243.474382,237.240474 C243.765988,237.831405 244.538744,238.392318 245.191427,238.487519 L250.65561,239.280859 C251.308293,239.37606 251.454954,239.830622 250.984096,240.290331 L247.028545,244.144677 C246.55683,244.605243 246.262651,245.51351 246.374147,246.162762 L247.307286,251.605504 C247.387907,252.076362 247.20694,252.353388 246.879312,252.353388 C246.75495,252.353388 246.609147,252.313078 246.448764,252.229026 L241.560931,249.659462 C241.269325,249.50594 240.885092,249.42875 240.5,249.42875 C240.115766,249.42875 239.731532,249.50594 239.439069,249.659462 L234.551236,252.229026 C234.390853,252.313078 234.24505,252.353388 234.120688,252.353388 C233.79306,252.353388 233.612093,252.076362 233.692714,251.605504 L234.626711,246.162762 C234.738207,245.51351 234.44317,244.605243 233.971455,244.144677 L230.016762,240.290331 C229.545046,239.830622 229.691707,239.37606 230.34439,239.280859 L235.809431,238.487519 C236.462114,238.392318 237.234012,237.831405 237.525618,237.240474 L239.969963,232.288317 C240.115766,231.992423 240.307883,231.844904 240.5,231.844904" id="warranty_icon"></path>
            </g>
        </g>
    </g>
</svg>