<?xml version="1.0" encoding="UTF-8"?>
<svg width="39px" height="46px" viewBox="0 0 39 46" version="1.1" xmlns="http://www.w3.org/2000/svg" xmlns:xlink="http://www.w3.org/1999/xlink">
    <!-- Generator: Sketch 57.1 (83088) - https://sketch.com -->
    <title>water_resistant</title>
    <desc>Created with Sketch.</desc>
    <g id="UI" stroke="none" stroke-width="1" fill="none" fill-rule="evenodd">
        <g id="Developer_test_M" transform="translate(-221.000000, -416.000000)" fill="#C4A37B">
            <g id="USP" transform="translate(0.000000, 371.000000)">
                <path d="M238.733101,48.310695 C239.183455,47.8630922 239.815265,47.6099291 240.500329,47.6099291 C241.138056,47.6099291 241.673221,47.8180709 242.235999,48.2832908 C245.692218,51.532 256.870197,62.7834043 256.870197,72.3390071 C256.73016,84.2363688 247.928866,88.4553191 240.433926,88.4553191 C232.912689,88.4553191 224.129803,84.2344113 224.129803,72.3390071 C224.129803,63.0437447 234.341987,52.4389504 238.733101,48.310695 M221.5,72.3390071 C221.5,80.0350355 224.872723,84.4027518 227.703048,86.7118865 C231.06065,89.4777589 235.604292,91 240.500329,91 C245.395708,91 249.93935,89.4777589 253.294979,86.713844 C256.127277,84.4027518 259.5,80.0350355 259.5,72.3390071 C259.371797,62.0996028 248.614587,50.7809929 243.992707,46.3871773 C243.006531,45.4671773 241.809313,45 240.433926,45 C239.14335,45 237.906685,45.4847943 236.858709,46.4028369 C232.254581,50.7796879 221.5,62.1067801 221.5,72.3390071 M239.846099,84.6620482 C240.596251,84.6620482 241.161001,84.101566 241.161001,83.3570837 C241.161001,82.6373957 240.571268,82.0521191 239.846099,82.0521191 C236.109806,82.0521191 232.08818,79.4585021 232.08818,73.7655943 C232.08818,73.0217645 231.522772,72.4606298 230.773278,72.4606298 C230.023784,72.4606298 229.458376,73.0217645 229.458376,73.7655943 C229.458376,80.9194099 234.683796,84.6620482 239.846099,84.6620482" id="water_resistant"></path>
            </g>
        </g>
    </g>
</svg>